<svg id="svg" version="1.1" xmlns="http://www.w3.org/2000/svg" xmlns:xlink="http://www.w3.org/1999/xlink" width="400" height="400" viewBox="0, 0, 400,400"><g id="svgg"><path id="path0" d="M93.440 159.222 C 93.000 159.299,91.560 159.520,90.240 159.713 C 68.602 162.874,52.949 185.068,56.797 207.133 C 62.036 237.173,97.170 251.264,121.733 233.175 C 148.288 213.619,141.636 171.644,110.321 161.174 C 105.748 159.645,96.884 158.620,93.440 159.222 M116.713 180.873 C 120.421 184.561,120.871 183.593,110.800 193.606 L 102.240 202.117 98.849 203.185 C 93.187 204.970,92.422 204.205,94.264 198.598 L 95.433 195.040 103.803 186.640 C 113.791 176.617,112.855 177.035,116.713 180.873 M166.024 179.221 C 157.069 180.232,152.468 190.527,156.706 200.071 C 161.038 209.827,177.589 208.675,180.722 198.400 C 183.519 189.232,179.028 180.118,171.335 179.349 C 170.293 179.245,169.152 179.119,168.800 179.070 C 168.448 179.021,167.199 179.089,166.024 179.221 M247.990 179.675 C 242.695 181.367,239.676 186.238,239.684 193.074 C 239.696 203.811,246.826 208.917,257.590 205.897 L 259.520 205.356 259.520 202.358 C 259.520 200.709,259.471 199.360,259.410 199.360 C 259.350 199.360,258.472 199.645,257.461 199.993 C 250.553 202.369,246.971 199.961,246.960 192.932 C 246.949 186.313,250.512 183.527,256.320 185.613 C 257.288 185.960,258.211 186.280,258.372 186.322 C 258.889 186.460,260.859 181.036,260.400 180.738 C 258.391 179.431,250.790 178.781,247.990 179.675 M283.034 182.800 C 282.397 184.780,280.446 190.800,278.698 196.178 C 276.950 201.556,275.520 206.056,275.520 206.178 C 275.520 206.300,277.244 206.400,279.351 206.400 L 283.182 206.400 283.658 204.720 C 283.919 203.796,284.228 202.640,284.343 202.151 L 284.554 201.263 289.064 201.351 L 293.575 201.440 294.221 203.920 L 294.867 206.400 298.771 206.400 L 302.676 206.400 301.915 204.080 C 301.497 202.804,299.482 196.684,297.438 190.480 L 293.722 179.200 288.957 179.200 L 284.192 179.200 283.034 182.800 M186.560 192.960 L 186.560 206.400 190.080 206.400 L 193.600 206.400 193.600 201.280 L 193.600 196.160 197.600 196.160 L 201.600 196.160 201.600 193.280 L 201.600 190.400 197.600 190.400 L 193.600 190.400 193.600 187.840 L 193.600 185.280 197.920 185.280 L 202.240 185.280 202.240 182.400 L 202.240 179.520 194.400 179.520 L 186.560 179.520 186.560 192.960 M207.040 192.960 L 207.040 206.400 210.560 206.400 L 214.080 206.400 214.080 201.280 L 214.080 196.160 218.080 196.160 L 222.080 196.160 222.080 193.280 L 222.080 190.400 218.080 190.400 L 214.080 190.400 214.080 187.840 L 214.080 185.280 218.400 185.280 L 222.720 185.280 222.720 182.400 L 222.720 179.520 214.880 179.520 L 207.040 179.520 207.040 192.960 M227.200 192.960 L 227.200 206.400 230.880 206.400 L 234.560 206.400 234.560 192.960 L 234.560 179.520 230.880 179.520 L 227.200 179.520 227.200 192.960 M264.960 192.960 L 264.960 206.400 268.640 206.400 L 272.320 206.400 272.320 192.960 L 272.320 179.520 268.640 179.520 L 264.960 179.520 264.960 192.960 M305.920 192.960 L 305.920 206.400 314.560 206.400 L 323.200 206.400 323.200 203.520 L 323.200 200.640 318.080 200.640 L 312.960 200.640 312.960 190.080 L 312.960 179.520 309.440 179.520 L 305.920 179.520 305.920 192.960 M102.400 184.160 L 102.400 186.240 91.520 186.240 C 81.067 186.240,80.615 186.265,80.000 186.880 C 79.092 187.788,78.989 216.339,79.890 217.335 C 80.588 218.107,110.041 218.258,110.677 217.492 C 110.918 217.202,111.059 213.529,111.116 206.052 L 111.200 195.040 113.280 195.040 L 115.360 195.040 115.360 206.240 C 115.360 223.402,116.562 222.489,94.163 222.336 C 73.664 222.196,75.260 223.896,75.224 202.150 C 75.189 180.691,74.063 182.098,91.280 182.087 L 102.400 182.080 102.400 184.160 M291.826 194.960 C 291.838 195.453,291.494 195.520,288.938 195.520 C 286.324 195.520,286.054 195.465,286.205 194.960 C 286.298 194.652,286.897 192.240,287.536 189.600 C 288.176 186.960,288.773 184.584,288.864 184.320 C 289.024 183.857,291.797 193.819,291.826 194.960 M171.233 185.684 C 174.698 187.992,174.686 197.580,171.215 199.919 C 168.786 201.556,165.171 200.630,163.773 198.013 C 162.705 196.013,162.691 189.632,163.750 187.640 C 165.156 184.996,168.777 184.049,171.233 185.684 M231.840 216.658 C 231.136 216.803,230.092 216.842,229.520 216.745 C 228.490 216.570,227.823 218.282,228.792 218.613 C 229.335 218.799,227.161 224.000,226.540 224.000 C 225.959 224.000,225.464 225.821,225.997 225.999 C 226.156 226.052,226.140 226.460,225.961 226.931 C 225.667 227.705,225.718 227.784,226.621 227.964 C 228.947 228.429,229.722 228.236,230.009 227.120 C 230.395 225.624,232.493 225.372,232.838 226.781 C 233.140 228.013,233.443 228.149,235.881 228.155 C 239.014 228.162,239.014 228.163,236.939 222.223 C 234.678 215.750,234.926 216.021,231.840 216.658 M221.079 217.168 C 220.838 217.459,220.568 218.575,220.480 219.648 C 220.222 222.800,219.078 222.526,218.946 219.280 L 218.852 216.960 216.146 216.960 L 213.440 216.960 213.440 217.920 C 213.440 218.448,213.564 218.880,213.715 218.880 C 213.867 218.880,214.075 219.589,214.177 220.456 C 214.404 222.372,214.901 223.225,216.071 223.709 C 216.854 224.034,216.960 224.247,216.960 225.500 C 216.960 229.530,221.126 229.682,221.592 225.670 C 221.798 223.894,221.870 223.769,222.905 223.395 C 224.484 222.824,225.464 220.666,225.078 218.608 C 224.770 216.969,222.057 215.992,221.079 217.168 M253.940 217.184 C 253.841 217.442,253.760 218.365,253.760 219.235 L 253.760 220.818 255.920 220.624 L 258.080 220.431 255.621 222.775 C 251.242 226.950,251.764 227.873,258.610 228.068 C 263.784 228.215,264.123 228.096,264.068 226.151 C 264.020 224.463,263.021 223.915,260.246 224.055 L 257.920 224.172 260.640 221.440 C 263.274 218.794,263.994 217.458,262.960 217.135 C 261.589 216.705,254.108 216.746,253.940 217.184 M239.360 217.920 C 239.360 218.448,239.504 218.880,239.680 218.880 C 239.876 218.880,240.000 220.406,240.000 222.819 C 240.000 228.147,239.867 228.000,244.695 228.000 C 250.422 228.000,251.987 226.746,251.767 222.330 C 251.560 218.172,249.685 216.960,243.452 216.960 L 239.360 216.960 239.360 217.920 M246.646 220.800 C 247.510 222.442,246.579 225.920,245.275 225.920 C 244.871 225.920,244.488 223.625,244.483 221.179 C 244.479 219.525,245.849 219.285,246.646 220.800 M232.065 222.913 C 232.155 223.688,232.057 224.121,231.766 224.233 C 231.099 224.488,230.944 224.135,231.176 222.895 C 231.451 221.432,231.893 221.441,232.065 222.913 " stroke="none" fill="#060504" fill-rule="evenodd"></path><path id="path1" d="M90.240 153.426 C 70.846 156.359,54.917 171.283,51.068 190.126 C 45.744 216.191,62.012 240.792,88.169 246.236 C 91.094 246.844,300.902 247.000,307.217 246.398 C 357.534 241.604,365.867 171.909,318.023 156.021 C 310.595 153.554,322.085 153.808,205.920 153.543 C 148.720 153.413,99.904 153.241,97.440 153.160 C 94.651 153.069,91.934 153.169,90.240 153.426 M105.305 159.685 C 137.961 166.340,149.789 206.721,125.843 229.805 C 99.695 255.012,56.215 236.500,56.215 200.160 C 56.215 174.060,79.923 154.513,105.305 159.685 M104.098 186.628 L 95.687 195.017 94.533 198.482 C 92.656 204.114,93.296 204.794,98.779 202.988 L 102.240 201.848 110.640 193.486 C 120.671 183.501,120.278 184.356,116.517 180.695 C 113.007 177.280,113.897 176.855,104.098 186.628 M174.240 179.838 C 179.143 181.681,181.252 185.521,181.269 192.640 C 181.293 202.769,177.123 207.029,167.547 206.660 C 158.100 206.295,153.012 198.293,155.691 188.011 C 157.671 180.409,165.998 176.740,174.240 179.838 M255.887 179.179 C 256.753 179.343,258.269 179.779,259.256 180.149 L 261.051 180.820 259.967 183.582 C 258.635 186.975,258.931 186.745,256.890 185.981 C 250.904 183.741,247.615 185.717,247.136 191.840 C 246.506 199.883,251.059 202.644,259.280 199.206 C 259.792 198.992,259.840 199.248,259.840 202.176 L 259.840 205.380 258.320 205.927 C 249.699 209.027,241.210 204.868,239.679 196.794 C 237.508 185.349,245.073 177.128,255.887 179.179 M202.492 182.320 L 202.584 185.280 198.092 185.280 L 193.600 185.280 193.600 187.840 L 193.600 190.400 197.600 190.400 L 201.600 190.400 201.600 193.440 L 201.600 196.480 197.600 196.480 L 193.600 196.480 193.600 201.440 L 193.600 206.400 189.920 206.400 L 186.240 206.400 186.240 192.795 L 186.240 179.189 194.320 179.275 L 202.400 179.360 202.492 182.320 M222.972 182.320 L 223.064 185.280 218.572 185.280 L 214.080 185.280 214.080 187.840 L 214.080 190.400 218.080 190.400 L 222.080 190.400 222.080 193.440 L 222.080 196.480 218.080 196.480 L 214.080 196.480 214.080 201.440 L 214.080 206.400 210.400 206.400 L 206.720 206.400 206.720 192.795 L 206.720 179.189 214.800 179.275 L 222.880 179.360 222.972 182.320 M234.560 192.800 L 234.560 206.400 230.880 206.400 L 227.200 206.400 227.200 192.800 L 227.200 179.200 230.880 179.200 L 234.560 179.200 234.560 192.800 M272.320 192.800 L 272.320 206.400 268.640 206.400 L 264.960 206.400 264.960 192.800 L 264.960 179.200 268.640 179.200 L 272.320 179.200 272.320 192.800 M298.335 192.605 C 300.747 199.978,302.720 206.098,302.720 206.205 C 302.720 206.312,300.930 206.400,298.743 206.400 L 294.765 206.400 294.283 204.720 C 294.018 203.796,293.704 202.644,293.586 202.160 L 293.371 201.280 289.094 201.280 L 284.818 201.280 284.342 202.960 C 284.081 203.884,283.773 205.036,283.659 205.520 L 283.451 206.400 279.299 206.400 C 276.114 206.400,275.180 206.307,275.290 206.000 C 275.369 205.780,277.361 199.662,279.717 192.404 L 284.000 179.207 288.975 179.204 L 293.951 179.200 298.335 192.605 M313.204 189.840 L 313.289 200.320 318.404 200.320 L 323.520 200.320 323.520 203.360 L 323.520 206.400 314.560 206.400 L 305.600 206.400 305.600 192.790 L 305.600 179.180 309.360 179.270 L 313.120 179.360 313.204 189.840 M78.391 183.070 C 77.770 183.430,76.906 184.244,76.471 184.879 L 75.680 186.032 75.591 201.812 C 75.466 224.125,73.478 222.150,95.919 222.012 C 112.819 221.908,112.415 221.969,114.240 219.265 L 115.040 218.080 115.135 206.640 L 115.230 195.200 113.295 195.200 L 111.360 195.200 111.360 206.024 L 111.360 216.848 110.619 217.544 C 109.527 218.570,81.215 218.648,79.955 217.628 L 79.200 217.017 79.200 202.241 L 79.200 187.465 80.098 186.692 L 80.996 185.920 91.538 185.920 L 102.080 185.920 102.080 184.160 L 102.080 182.400 90.800 182.407 C 80.022 182.414,79.470 182.444,78.391 183.070 M288.804 185.440 C 288.670 185.968,288.075 188.324,287.481 190.676 C 286.886 193.028,286.400 195.008,286.400 195.076 C 286.400 195.144,287.634 195.200,289.142 195.200 C 291.841 195.200,291.880 195.189,291.649 194.480 C 291.520 194.084,290.882 191.672,290.231 189.120 C 289.222 185.168,289.010 184.622,288.804 185.440 M166.606 185.272 C 160.989 187.057,161.955 199.898,167.755 200.551 C 171.243 200.945,173.258 198.775,173.635 194.221 C 174.180 187.620,171.191 183.815,166.606 185.272 M235.109 216.720 C 235.402 217.101,237.747 223.742,238.509 226.350 C 238.956 227.882,238.335 228.480,236.299 228.480 C 233.820 228.480,233.015 228.178,232.792 227.163 C 232.476 225.723,230.617 225.806,230.194 227.280 C 229.970 228.063,229.721 228.314,229.188 228.297 C 228.799 228.285,227.855 228.249,227.092 228.217 L 225.703 228.160 225.685 226.217 C 225.669 224.557,225.760 224.240,226.307 224.038 C 227.170 223.719,229.067 218.923,228.475 218.557 C 227.338 217.854,228.427 216.675,230.322 216.556 C 234.238 216.311,234.809 216.330,235.109 216.720 M219.040 219.033 C 219.040 222.134,219.974 222.513,220.245 219.523 C 220.460 217.153,220.843 216.640,222.396 216.640 C 226.178 216.640,226.407 222.153,222.688 223.693 C 221.852 224.040,221.760 224.225,221.760 225.568 C 221.760 227.670,221.108 228.481,219.422 228.475 C 217.537 228.468,217.215 228.154,216.928 226.036 C 216.789 225.011,216.514 224.118,216.316 224.052 C 215.187 223.676,214.365 222.470,214.107 220.812 C 213.957 219.851,213.699 219.020,213.534 218.965 C 213.368 218.909,213.295 218.443,213.371 217.928 C 213.518 216.926,214.401 216.693,217.760 216.771 L 219.040 216.800 219.040 219.033 M249.069 217.418 C 251.010 218.369,252.001 220.155,251.996 222.697 C 251.990 226.822,250.125 228.239,244.754 228.201 C 239.770 228.166,239.680 228.063,239.680 222.352 C 239.680 220.251,239.554 218.880,239.360 218.880 C 239.184 218.880,239.040 218.456,239.040 217.937 C 239.040 217.029,239.103 216.988,240.720 216.862 C 244.390 216.573,247.810 216.801,249.069 217.418 M263.368 217.461 C 263.784 218.555,263.550 218.924,260.660 221.723 L 258.221 224.085 259.860 223.868 C 263.416 223.396,265.734 225.786,263.697 227.823 C 262.738 228.782,254.205 228.433,253.367 227.401 C 252.317 226.107,252.637 225.300,255.120 222.978 L 257.440 220.809 255.440 220.805 C 253.206 220.799,253.265 220.888,253.643 218.125 L 253.847 216.640 258.451 216.640 L 263.056 216.640 263.368 217.461 M244.800 222.720 C 244.800 225.369,244.850 225.600,245.429 225.600 C 246.703 225.600,247.263 222.037,246.222 220.551 C 245.176 219.059,244.800 219.633,244.800 222.720 M231.360 222.675 C 231.360 222.847,231.273 223.215,231.166 223.494 C 231.038 223.826,231.148 224.000,231.486 224.000 C 232.051 224.000,232.202 222.882,231.680 222.560 C 231.504 222.451,231.360 222.503,231.360 222.675 " stroke="none" fill="#fbbb5b" fill-rule="evenodd"></path><path id="path2" d="M202.355 182.400 C 202.355 184.072,202.409 184.756,202.475 183.920 C 202.541 183.084,202.541 181.716,202.475 180.880 C 202.409 180.044,202.355 180.728,202.355 182.400 M222.835 182.400 C 222.835 184.072,222.889 184.756,222.955 183.920 C 223.021 183.084,223.021 181.716,222.955 180.880 C 222.889 180.044,222.835 180.728,222.835 182.400 M313.113 189.920 L 313.120 200.480 318.400 200.493 L 323.680 200.505 318.484 200.405 L 313.289 200.304 313.198 189.832 L 313.106 179.360 313.113 189.920 M91.440 182.320 L 102.080 182.409 102.080 184.160 L 102.080 185.911 91.440 186.000 L 80.800 186.089 91.600 186.164 L 102.400 186.240 102.400 184.160 L 102.400 182.080 91.600 182.156 L 80.800 182.231 91.440 182.320 M75.347 202.080 C 75.347 210.000,75.389 213.194,75.440 209.178 C 75.491 205.162,75.490 198.682,75.440 194.778 C 75.389 190.874,75.347 194.160,75.347 202.080 M79.187 202.080 C 79.187 209.824,79.229 212.946,79.280 209.018 C 79.331 205.090,79.331 198.754,79.280 194.938 C 79.229 191.122,79.187 194.336,79.187 202.080 M195.613 196.398 C 196.809 196.459,198.681 196.459,199.773 196.397 C 200.866 196.334,199.888 196.284,197.600 196.284 C 195.312 196.285,194.418 196.336,195.613 196.398 M216.093 196.398 C 217.289 196.459,219.161 196.459,220.253 196.397 C 221.346 196.334,220.368 196.284,218.080 196.284 C 215.792 196.285,214.898 196.336,216.093 196.398 M217.580 216.866 C 218.806 216.991,218.849 217.036,218.978 218.338 L 219.110 219.680 219.075 218.240 L 219.040 216.800 217.678 216.769 L 216.315 216.737 217.580 216.866 M239.114 217.920 C 239.114 218.536,239.180 218.788,239.261 218.480 C 239.341 218.172,239.341 217.668,239.261 217.360 C 239.180 217.052,239.114 217.304,239.114 217.920 M220.247 219.840 C 220.247 220.632,220.310 220.956,220.386 220.560 C 220.462 220.164,220.462 219.516,220.386 219.120 C 220.310 218.724,220.247 219.048,220.247 219.840 M239.802 222.560 C 239.803 224.672,239.855 225.494,239.917 224.387 C 239.980 223.281,239.979 221.553,239.916 220.547 C 239.853 219.542,239.802 220.448,239.802 222.560 M259.503 222.640 L 258.400 223.840 259.600 222.737 C 260.260 222.131,260.800 221.591,260.800 221.537 C 260.800 221.293,260.529 221.523,259.503 222.640 M253.900 224.080 L 252.960 225.120 254.000 224.180 C 254.969 223.304,255.187 223.040,254.940 223.040 C 254.885 223.040,254.417 223.508,253.900 224.080 M260.560 223.901 C 260.868 223.981,261.372 223.981,261.680 223.901 C 261.988 223.820,261.736 223.754,261.120 223.754 C 260.504 223.754,260.252 223.820,260.560 223.901 M230.964 226.146 C 231.362 226.223,231.938 226.220,232.244 226.140 C 232.550 226.060,232.224 225.997,231.520 226.001 C 230.816 226.004,230.566 226.070,230.964 226.146 " stroke="none" fill="#936e33" fill-rule="evenodd"></path><path id="path3" d="M190.499 179.439 C 192.753 179.494,196.353 179.494,198.499 179.439 C 200.644 179.384,198.800 179.339,194.400 179.339 C 190.000 179.339,188.244 179.384,190.499 179.439 M210.979 179.439 C 213.233 179.494,216.833 179.494,218.979 179.439 C 221.124 179.384,219.280 179.339,214.880 179.339 C 210.480 179.339,208.724 179.384,210.979 179.439 M229.200 179.436 C 230.212 179.500,231.868 179.500,232.880 179.436 C 233.892 179.373,233.064 179.321,231.040 179.321 C 229.016 179.321,228.188 179.373,229.200 179.436 M266.960 179.436 C 267.972 179.500,269.628 179.500,270.640 179.436 C 271.652 179.373,270.824 179.321,268.800 179.321 C 266.776 179.321,265.948 179.373,266.960 179.436 M307.600 179.436 C 308.612 179.500,310.268 179.500,311.280 179.436 C 312.292 179.373,311.464 179.321,309.440 179.321 C 307.416 179.321,306.588 179.373,307.600 179.436 " stroke="none" fill="#7e5c2c" fill-rule="evenodd"></path><path id="path4" d="M103.678 186.800 L 95.520 195.040 103.760 186.882 C 108.292 182.396,112.000 178.688,112.000 178.642 C 112.000 178.416,111.258 179.143,103.678 186.800 M251.924 179.110 C 252.411 179.183,253.131 179.181,253.524 179.105 C 253.918 179.029,253.520 178.969,252.640 178.972 C 251.760 178.974,251.438 179.036,251.924 179.110 M186.387 192.960 C 186.387 200.440,186.428 203.500,186.480 199.760 C 186.531 196.020,186.531 189.900,186.480 186.160 C 186.428 182.420,186.387 185.480,186.387 192.960 M206.867 192.960 C 206.867 200.440,206.908 203.500,206.960 199.760 C 207.011 196.020,207.011 189.900,206.960 186.160 C 206.908 182.420,206.867 185.480,206.867 192.960 M305.747 192.960 C 305.747 200.440,305.788 203.500,305.840 199.760 C 305.891 196.020,305.891 189.900,305.840 186.160 C 305.788 182.420,305.747 185.480,305.747 192.960 M110.558 193.680 L 102.560 201.760 110.640 193.762 C 118.148 186.331,118.864 185.600,118.638 185.600 C 118.592 185.600,114.956 189.236,110.558 193.680 M239.456 192.960 C 239.456 193.928,239.516 194.324,239.589 193.840 C 239.663 193.356,239.663 192.564,239.589 192.080 C 239.516 191.596,239.456 191.992,239.456 192.960 M111.191 195.267 C 111.103 195.497,111.071 200.436,111.120 206.242 L 111.209 216.800 111.285 206.000 L 111.360 195.200 113.276 195.200 L 115.191 195.200 115.282 205.680 L 115.373 216.160 115.366 205.600 L 115.360 195.040 113.356 194.945 C 111.931 194.877,111.305 194.970,111.191 195.267 M286.079 195.280 C 286.080 195.412,287.412 195.497,289.040 195.469 C 292.049 195.417,291.691 195.290,288.079 195.129 C 286.979 195.080,286.079 195.148,286.079 195.280 M138.339 200.160 C 138.341 201.216,138.401 201.609,138.472 201.034 C 138.543 200.459,138.542 199.595,138.469 199.114 C 138.396 198.633,138.337 199.104,138.339 200.160 M56.087 200.000 C 56.087 200.792,56.150 201.116,56.226 200.720 C 56.302 200.324,56.302 199.676,56.226 199.280 C 56.150 198.884,56.087 199.208,56.087 200.000 M259.635 202.240 C 259.635 203.912,259.689 204.596,259.755 203.760 C 259.821 202.924,259.821 201.556,259.755 200.720 C 259.689 199.884,259.635 200.568,259.635 202.240 M323.315 203.520 C 323.315 205.192,323.369 205.876,323.435 205.040 C 323.501 204.204,323.501 202.836,323.435 202.000 C 323.369 201.164,323.315 201.848,323.315 203.520 M257.680 216.876 C 258.692 216.940,260.348 216.940,261.360 216.876 C 262.372 216.813,261.544 216.761,259.520 216.761 C 257.496 216.761,256.668 216.813,257.680 216.876 M88.102 218.160 C 92.118 218.211,98.598 218.210,102.502 218.160 C 106.406 218.109,103.120 218.067,95.200 218.067 C 87.280 218.067,84.086 218.109,88.102 218.160 M88.262 222.320 C 92.190 222.371,98.526 222.371,102.342 222.320 C 106.158 222.269,102.944 222.227,95.200 222.227 C 87.456 222.227,84.334 222.269,88.262 222.320 M255.600 228.066 C 255.996 228.142,256.644 228.142,257.040 228.066 C 257.436 227.990,257.112 227.927,256.320 227.927 C 255.528 227.927,255.204 227.990,255.600 228.066 M235.444 228.386 C 235.842 228.463,236.418 228.460,236.724 228.380 C 237.030 228.300,236.704 228.237,236.000 228.241 C 235.296 228.244,235.046 228.310,235.444 228.386 " stroke="none" fill="#705426" fill-rule="evenodd"></path></g></svg>